<svg class="icon" viewBox="0 0 1024 1024" xmlns="http://www.w3.org/2000/svg" width="200" height="200"><defs><style/></defs><path d="M510.92 63.95c247.345 0 447.86 200.515 447.86 447.862 0 247.348-200.515 447.86-447.86 447.86-247.35 0-447.864-200.513-447.864-447.86 0-247.346 200.515-447.862 447.863-447.862z" fill="#EEE"/><path d="M510.92 515.965c79.15 0 143.313-64.425 143.313-143.9 0-79.472-64.163-143.897-143.314-143.897s-143.317 64.425-143.317 143.898c0 79.475 64.165 143.9 143.317 143.9zm221.06 175.868l1.068-.402c-35.032-88.683-121.28-151.4-222.129-151.4-99.597 0-184.944 61.174-220.793 148.113l.494.2a35.122 35.122 0 00-2.565 13.201c0 19.476 15.798 35.266 35.291 35.266 14.758 0 27.393-9.056 32.662-21.907l.575.234c25.225-60.508 84.823-103.029 154.336-103.029 70.11 0 130.13 43.26 154.973 104.596l.253-.095c5.654 11.94 17.815 20.201 31.913 20.201 19.49 0 35.29-15.79 35.29-35.266a35.282 35.282 0 00-1.368-9.712z" fill="#CCC"/></svg>